<svg xmlns="http://www.w3.org/2000/svg" viewBox="0 0 512 512" fill="none">
  <!-- Background rounded square -->
  <rect width="512" height="512" rx="96" fill="#1A1D21"/>
  <rect x="4" y="4" width="504" height="504" rx="92" stroke="white" stroke-opacity="0.1" stroke-width="8"/>
  
  <!-- Subtle gradient glow behind -->
  <rect x="24" y="24" width="464" height="464" rx="80" fill="url(#bgGlow)" opacity="0.2"/>
  
  <!-- Main icon paths - scaled from 24x24 to ~320x320, centered -->
  <g transform="translate(96, 56) scale(13.333)">
    <!-- Upward arrow/pen stroke -->
    <path d="M12 4V20M12 4L8 8M12 4L16 8" stroke="url(#paint0)" stroke-width="2" stroke-linecap="round" stroke-linejoin="round"/>
    <!-- Curved quill/leaf shape -->
    <path d="M6 9C6 9 3 12 3 15C3 18 5 21 9 21C11.5 21 12 19 12 19C12 19 12.5 21 15 21C19 21 21 18 21 15C21 12 18 9 18 9" stroke="url(#paint1)" stroke-width="2" stroke-linecap="round" stroke-linejoin="round" opacity="0.85"/>
  </g>
  
  <defs>
    <linearGradient id="bgGlow" x1="256" y1="24" x2="256" y2="488" gradientUnits="userSpaceOnUse">
      <stop stop-color="#F97316"/>
      <stop offset="1" stop-color="#EA580C"/>
    </linearGradient>
    <linearGradient id="paint0" x1="12" y1="4" x2="12" y2="20" gradientUnits="userSpaceOnUse">
      <stop stop-color="#EA580C"/>
      <stop offset="1" stop-color="#FDBA74"/>
    </linearGradient>
    <linearGradient id="paint1" x1="12" y1="9" x2="12" y2="21" gradientUnits="userSpaceOnUse">
      <stop stop-color="#FDBA74"/>
      <stop offset="1" stop-color="#EA580C"/>
    </linearGradient>
  </defs>
</svg>
